# xmcd
#
# Track frame offsets:
#   150
#   12595
#   30208
#   46537
#   57905
#   76953
#   95441
#   109351
#   125755
#   142734
#
# Disc length: 2187 seconds
#
# Revision: 0
# Processed by: cddbd v1.5.1PL0 Copyright (c) Steve Scherf et al.
# Submitted via: Media_Universe 3.0
#
DISCID=7608890a
DTITLE=Kylie Harris - Kylie Harris
DYEAR=2004
DGENRE=Country
TTITLE0=Runnin' Out Of Tracks
TTITLE1=Love Letters from Old Mexico
TTITLE2=Hands Of My Heart
TTITLE3=The Key
TTITLE4=With Sonny Gone
TTITLE5=Give Me Something To Go On
TTITLE6=Trouble Maker
TTITLE7=I Didn't Lie
TTITLE8=Keeping The Dream Alive
TTITLE9=When Someone Speaks You Name
EXTD=
EXTT0=
EXTT1=
EXTT2=
EXTT3=
EXTT4=
EXTT5=
EXTT6=
EXTT7=
EXTT8=
EXTT9=
PLAYORDER=
